# xmcd
#
# Track frame offsets:
#	150
#	22076
#	43411
#	61349
#	85700
#	106835
#	127801
#	154702
#	177460
#	205616
#	229754
#
# Disc length: 3362 seconds
# Revision: 0
# Processed by: cddbd v1.5.2PL0 Copyright (c) Steve Scherf et al.
# Submitted via: dBpowerAMP V12.0
#
DISCID=890d200b
DTITLE=Various Artist - Huong ky niem
DYEAR=2012
DGENRE=Pop
TTITLE0=Huynh Gia Tuan and Nhu Quynh - Bai ca dao dau doi
TTITLE1=Nhu Quynh - Go cua
TTITLE2=Huynh Gia Tuan - Chuyen ba nguoi
TTITLE3=Nhu Quynh - Trang tan tren he pho
TTITLE4=Huynh Gia Tuan - Yeu mot minh
TTITLE5=Huynh Gia Tuan and Nhu Quynh - Lien khuc: May do thu ve and chieu hanh quan
TTITLE6=Nhu Quynh - Chuyen do vi tuyen
TTITLE7=Huynh Gia Tuan - Thuong ve mien dat lanh
TTITLE8=Huynh Gia Tuan and Nhu Quynh - Chuyen do khong em
TTITLE9=Huynh Gia Tuan - Canh buom chuyen ben
TTITLE10=Nhu Quynh - Chieu tan
EXTD=
EXTT0=
EXTT1=
EXTT2=
EXTT3=
EXTT4=
EXTT5=
EXTT6=
EXTT7=
EXTT8=
EXTT9=
EXTT10=
PLAYORDER=
